<svg xmlns="http://www.w3.org/2000/svg" width="1254" height="1254" viewBox="0 0 1254 1254"><g transform="translate(220.875 203.38636363636363) scale(0.6477272727272727)"><path fill="#315F95" fill-rule="evenodd" d="M302,558 L292,568 L287,580 L288,599 L296,614 L309,627 L324,637 L345,646 L363,652 L385,657 L402,663 L426,675 L447,690 L465,708 L479,726 L523,794 L531,804 L543,816 L545,816 L546,813 L542,804 L540,794 L543,778 L547,770 L556,758 L609,702 L612,696 L612,687 L606,679 L597,675 L548,675 L536,672 L520,665 L496,647 L450,599 L432,582 L411,566 L391,555 L365,547 L335,546 L317,550 Z M999,458 L973,462 L951,469 L924,484 L903,500 L869,536 L788,636 L672,770 L792,770 L800,768 L808,764 L835,738 L868,699 L873,685 L872,650 L876,627 L879,619 L888,603 L906,584 L927,572 L948,566 L980,567 L992,571 L1008,580 L1025,597 L1034,614 L1038,629 L1039,646 L1037,658 L1033,670 L1024,686 L1005,704 L985,714 L963,718 L949,718 L932,716 L915,711 L907,710 L901,712 L896,718 L895,722 L895,905 L899,925 L908,946 L923,966 L936,978 L952,988 L969,995 L987,999 L1014,999 L1026,997 L1044,991 L1058,984 L1072,974 L1086,960 L1094,949 L1104,929 L1108,916 L1110,905 L1110,844 L1111,843 L1110,835 L1110,810 L1111,809 L1110,806 L1110,766 L1111,765 L1110,576 L1111,575 L1111,563 L1110,562 L1110,543 L1105,523 L1091,498 L1079,485 L1059,471 L1043,464 L1022,459 Z M274,450 L246,450 L234,452 L212,459 L192,470 L172,487 L159,504 L149,524 L144,544 L144,564 L143,565 L143,848 L144,849 L143,897 L146,917 L153,937 L165,957 L179,972 L194,983 L208,990 L224,995 L237,997 L251,997 L269,994 L281,990 L298,981 L309,973 L320,962 L329,950 L336,937 L341,923 L345,901 L345,729 L347,727 L354,727 L382,734 L411,748 L439,769 L443,768 L445,764 L443,750 L437,737 L431,728 L413,710 L398,700 L384,693 L363,685 L329,675 L311,666 L299,658 L289,649 L278,636 L272,626 L264,601 L265,577 L272,560 L276,554 L288,542 L305,532 L321,528 L349,529 L363,532 L379,538 L389,538 L392,535 L391,526 L380,510 L360,489 L350,481 L330,468 L318,462 L292,453 Z M1097,427 L1092,413 L1083,395 L1067,372 L1052,356 L1038,344 L1016,330 L996,321 L978,315 L953,310 L919,309 L918,310 L901,311 L879,316 L854,325 L826,340 L803,357 L775,384 L649,537 L644,546 L643,551 L644,562 L646,567 L654,575 L665,579 L784,579 L785,578 L790,579 L793,578 L868,489 L893,464 L915,448 L934,438 L957,430 L981,426 L1008,427 L1026,431 L1043,437 L1057,444 L1075,457 L1098,481 L1100,481 L1103,474 L1103,457 Z M183,379 L164,411 L155,436 L151,457 L151,477 L154,481 L156,481 L181,455 L193,446 L213,434 L235,426 L260,421 L285,420 L307,423 L325,428 L349,439 L363,448 L387,471 L451,555 L494,609 L499,617 L523,641 L540,649 L549,651 L659,650 L664,652 L667,655 L667,662 L611,722 L565,774 L560,788 L560,803 L565,815 L578,828 L585,832 L598,836 L758,836 L767,833 L773,829 L781,820 L785,808 L783,795 L779,789 L768,782 L745,781 L744,780 L739,781 L661,781 L654,779 L649,773 L649,767 L769,634 L775,622 L775,612 L770,601 L766,597 L754,592 L657,592 L649,590 L637,583 L627,573 L479,386 L452,358 L436,345 L404,326 L374,315 L340,309 L303,310 L270,317 L236,332 L219,343 L207,353 Z"/><path fill="#82A7D5" fill-rule="evenodd" d="M1097,427 L1092,413 L1083,395 L1067,372 L1052,356 L1038,344 L1016,330 L996,321 L978,315 L953,310 L919,309 L918,310 L901,311 L879,316 L854,325 L826,340 L803,357 L775,384 L649,537 L644,546 L643,551 L644,562 L646,567 L654,575 L665,579 L784,579 L785,578 L790,579 L793,578 L868,489 L893,464 L915,448 L934,438 L957,430 L981,426 L1008,427 L1026,431 L1043,437 L1057,444 L1075,457 L1098,481 L1100,481 L1103,474 L1103,457 Z"/></g></svg>